 <svg version="1.0" xmlns="http://www.w3.org/2000/svg"  width="300.000000pt" height="300.000000pt" viewBox="0 0 300.000000 300.000000"  preserveAspectRatio="xMidYMid meet">  <g transform="translate(0.000000,300.000000) scale(0.100000,-0.100000)" fill="#000000" stroke="none"> <path d="M1276 2429 c-121 -259 -228 -476 -238 -483 -9 -7 -224 -109 -478 -227 -253 -118 -460 -216 -460 -219 0 -3 212 -104 471 -224 258 -121 476 -227 483 -237 7 -10 109 -225 227 -479 118 -253 216 -460 219 -460 3 0 100 203 215 452 116 248 217 463 226 477 13 21 116 73 488 246 259 121 471 222 471 225 0 3 -212 104 -471 224 -258 121 -476 227 -483 237 -7 10 -109 225 -227 479 -118 253 -216 460 -219 460 -3 0 -104 -212 -224 -471z m429 -54 c122 -260 209 -434 225 -450 14 -14 213 -112 441 -219 238 -111 414 -199 414 -206 0 -8 -176 -95 -415 -207 -228 -106 -425 -203 -438 -216 -25 -23 -60 -93 -239 -477 -199 -429 -185 -402 -199 -388 -7 7 -99 197 -204 423 -111 239 -203 421 -218 437 -16 17 -190 103 -442 221 -240 112 -415 199 -415 207 0 7 121 69 281 144 154 72 342 160 417 195 75 35 147 76 161 90 13 14 61 105 106 201 231 498 314 670 320 670 4 0 96 -191 205 -425z"/> </g> </svg> 